<svg xmlns="http://www.w3.org/2000/svg" width="171" height="171" viewBox="0 0 171 171">
  <g id="组_16508" data-name="组 16508" transform="translate(1560 -5596)">
    <g id="组_16506" data-name="组 16506" transform="translate(-233 38)">
      <circle id="椭圆_2555" data-name="椭圆 2555" cx="85.5" cy="85.5" r="85.5" transform="translate(-1327 5558)" fill="rgba(77,218,3,0.36)"/>
      <path id="路径_30680" data-name="路径 30680" d="M480.04,52.1h.7c17.594,1.379,32.62,6.687,44.617,15.855,11.83,9.072,20.526,18.781,25.845,28.865a4.094,4.094,0,0,1,.279,3.116,3.721,3.721,0,0,1-2.016,2.375l-59.933,30.7a14.928,14.928,0,1,1-13.192-7.789v-69a4,4,0,0,1,1.283-3.021,3.875,3.875,0,0,1,3.118-1.1h-.7Zm-3.615,81.287a2.808,2.808,0,1,0,0-.009v.009Zm38.024-44.9a5.417,5.417,0,1,0,5.105,5.4A5.41,5.41,0,0,0,514.449,88.481Zm0,0" transform="translate(-1717.033 5505.922)" fill="#3bb100"/>
    </g>
    <path id="路径_30681" data-name="路径 30681" d="M266.151,270.862a53.079,53.079,0,0,0,45.367,80.363,56.829,56.829,0,0,0,12.923-1.555A53.122,53.122,0,0,0,363.1,285.347a4.065,4.065,0,1,0-7.877,2.009,44.891,44.891,0,1,1-82.1-12.373,44.36,44.36,0,0,1,27.582-20.345,4.067,4.067,0,1,0-2.025-7.877,52.222,52.222,0,0,0-32.524,24.1h-.008Zm0,0" transform="translate(-1786.119 5382.573)" fill="#3bb100"/>
  </g>
</svg>
